# xmcd
#
# Track frame offsets:
#	150
#	20171
#	37076
#	52787
#	71012
#	92503
#	116936
#	134441
#	157722
#	175805
#	192410
#	213206
#	237534
#	256857
#	275920
#	291688
#	309198
#
# Disc length: 4399 seconds
#
# Revision: 0
# Processed by: cddbd v1.5.1PL0 Copyright (c) Steve Scherf et al.
# Submitted via: dBpowerAMP V4.0
#
DISCID=00112d11
DTITLE=Various Artist - 30 Jaar Radio 3 FM 1985-1995 Vol.3, CD2
DYEAR=1900
DGENRE=
TTITLE0=Lisa Stansfield - All Around The World
TTITLE1=Soul II Soul - Back To Life (However Do You Want Me)
TTITLE2=Gloria Estefan and Miami Sound Machnie - 1,2,3
TTITLE3=Adventures Of Stevie V. - Dirty Cash
TTITLE4=Alannah Myles - Black Velvet
TTITLE5=Christians - Words
TTITLE6=Vaya Con Dios - What's A Woman
TTITLE7=Scorpions - Wind Of Change
TTITLE8=Dr. Alban - It's My Life
TTITLE9=Snap - Rhythm Is A Dancer
TTITLE10=Charles and Eddie - Would I Lie To You
TTITLE11=Jon Secada - Just Another Day
TTITLE12=Culture Beat - Mr. Vain
TTITLE13=Spin Doctors - Two Princess
TTITLE14=Ace Of Base - All That She Wants
TTITLE15=Snap - The First, The Last, Eternity (Till The End)
TTITLE16=Connels - '74 - '75
EXTD=
EXTT0=
EXTT1=
EXTT2=
EXTT3=
EXTT4=
EXTT5=
EXTT6=
EXTT7=
EXTT8=
EXTT9=
EXTT10=
EXTT11=
EXTT12=
EXTT13=
EXTT14=
EXTT15=
EXTT16=
PLAYORDER=
